<svg width="2000" height="2000" viewBox="0 0 2000 2000" fill="none" xmlns="http://www.w3.org/2000/svg">
<path d="M871.084 848.609H400.275C380.291 895.85 363.246 937.906 349.139 974.777C335.032 1010.5 323.277 1041.61 313.872 1068.11C305.644 1094.61 299.766 1117.08 296.239 1135.51C292.712 1153.95 290.949 1168.93 290.949 1180.45C290.949 1212.71 301.529 1235.18 322.689 1247.85C343.849 1259.38 379.116 1265.14 428.489 1265.14V1330.81H0V1265.14C27.0377 1261.68 49.961 1257.07 68.7698 1251.31C88.7542 1245.55 105.8 1237.48 119.906 1227.11C135.188 1216.74 148.12 1203.49 158.7 1187.36C170.455 1170.08 181.623 1149.34 192.203 1125.14L650.668 0H726.491L1126.77 974.777C1153.8 1039.3 1177.32 1091.15 1197.3 1130.33C1217.28 1168.35 1236.68 1197.16 1255.49 1216.74C1274.3 1236.33 1294.28 1249.01 1315.44 1254.77C1337.78 1260.53 1364.23 1263.41 1394.79 1263.41V1330.81H819.948V1263.41C882.252 1263.41 925.159 1257.65 948.67 1246.12C972.182 1234.6 983.937 1215.59 983.937 1189.09C983.937 1177.57 983.349 1167.2 982.174 1157.98C980.998 1147.61 978.647 1136.66 975.12 1125.14C972.769 1113.62 968.655 1100.95 962.777 1087.12C958.075 1072.14 951.609 1054.86 943.381 1035.27L871.084 848.609ZM435.542 762.193H837.581L641.851 252.336L435.542 762.193Z" fill="#C7BBA3"/>
<path fill-rule="evenodd" clip-rule="evenodd" d="M802.7 1934.32V2000H1437.5C1488.05 2000 1531.54 1999.42 1567.98 1998.27C1605.6 1995.97 1638.52 1993.09 1666.73 1989.63C1694.94 1985.02 1719.63 1979.84 1740.79 1974.08C1761.95 1967.16 1782.52 1958.52 1802.51 1948.15C1864.81 1918.19 1913.01 1877.29 1947.1 1825.44C1982.37 1772.44 2000 1715.4 2000 1654.33C2000 1544.87 1947.69 1453.85 1843.06 1381.26C1825.43 1369.74 1807.21 1359.37 1788.4 1350.15C1770.77 1340.93 1751.37 1333.44 1730.21 1327.68C1709.05 1320.77 1684.95 1315.01 1657.91 1310.4C1630.88 1305.79 1599.14 1301.76 1562.69 1298.3V1291.39C1668.49 1260.28 1740.2 1223.93 1788.4 1175.53C1837.77 1127.14 1843.06 1067.51 1843.06 1020.25C1843.06 959.492 1828.96 866.271 1740.79 810.964C1662.76 762.018 1549.39 762.692 1414.35 763.494C1396.8 763.599 1378.88 763.705 1360.63 763.705H1071.33C1071.33 763.705 1153.99 972.995 1181.54 1020.25C1196.26 1045.5 1195.05 1011.64 1193.57 970.167C1192.28 934.012 1190.78 892.073 1199.45 878.477C1225.28 837.969 1411.87 805.8 1546.6 851.472C1567.04 858.397 1583.46 867.12 1601.71 878.477C1656.57 912.615 1666.73 1000 1666.73 1020.25C1666.73 1087.77 1645.51 1137.72 1594.82 1189.04C1511.46 1273.43 1333.08 1256.55 1291.75 1236.29C1234.95 1208.46 1181.54 1087.77 1181.54 1087.77L1002.45 669.187H837.967V734.864C875.584 737.168 906.149 741.201 929.66 746.962C953.171 751.571 970.804 761.365 982.56 776.344C995.491 790.17 1003.72 809.758 1007.25 835.107C1011.95 859.303 1014.3 891.565 1014.3 931.893V1737.29C1014.3 1777.62 1011.36 1810.46 1005.48 1835.81C1000.78 1861.16 990.789 1880.75 975.506 1894.57C961.4 1908.4 940.24 1918.19 912.026 1923.95C884.989 1929.71 848.547 1933.17 802.7 1934.32ZM1761.95 1657.79C1761.95 1836.38 1655.56 1925.68 1442.79 1925.68C1355.8 1925.68 1293.49 1910.7 1255.88 1880.75C1218.26 1849.64 1199.45 1798.94 1199.45 1728.65V1343.24H1278.8C1325.82 1343.24 1365.2 1343.81 1396.94 1344.96C1429.86 1346.12 1458.07 1348.42 1481.58 1351.88C1505.09 1354.18 1525.66 1358.21 1543.3 1363.98C1560.93 1369.74 1579.15 1376.65 1597.96 1384.72C1707.29 1436.57 1761.95 1527.59 1761.95 1657.79Z" fill="#C7BBA3"/>
</svg>
